PathFileType	4	(X/Y/Z)	C:\Users\u0145647\OneDrive - KU Leuven\KU Leuven\c3d2osim\CP4\T0\Data\Processed\ViconC3D_CP4_2\CP4_T0_13_gapFilled.trc
DataRate	CameraRate	NumFrames	NumMarkers	Units	OrigDataRate	OrigDataStartFrame	OrigNumFrames
100.000000	100.000000	11	47	mm	100.000000	144	573
Frame#	Time	C7			T10			CLAV			STRN			LSHO			RSHO			RBAK			LASI			RASI			LPSI			RPSI			LLAT			RLAT			LF1			LF2			LF3			LTHI			LKNE			LMEK			RF1			RF2			RF3			RTHI			RKNE			RMEK			LT1			LT2			LT3			LTIB			LANK			LMM			RT1			RT2			RT3			RTIB			RANK			RMM			LHEE			LSTL			LLCA			LTOE			LCM5			RHEE			RSTL			RLCA			RTOE			RCM5
		X1	Y1	Z1	X2	Y2	Z2	X3	Y3	Z3	X4	Y4	Z4	X5	Y5	Z5	X6	Y6	Z6	X7	Y7	Z7	X8	Y8	Z8	X9	Y9	Z9	X10	Y10	Z10	X11	Y11	Z11	X12	Y12	Z12	X13	Y13	Z13	X14	Y14	Z14	X15	Y15	Z15	X16	Y16	Z16	X17	Y17	Z17	X18	Y18	Z18	X19	Y19	Z19	X20	Y20	Z20	X21	Y21	Z21	X22	Y22	Z22	X23	Y23	Z23	X24	Y24	Z24	X25	Y25	Z25	X26	Y26	Z26	X27	Y27	Z27	X28	Y28	Z28	X29	Y29	Z29	X30	Y30	Z30	X31	Y31	Z31	X32	Y32	Z32	X33	Y33	Z33	X34	Y34	Z34	X35	Y35	Z35	X36	Y36	Z36	X37	Y37	Z37	X38	Y38	Z38	X39	Y39	Z39	X40	Y40	Z40	X41	Y41	Z41	X42	Y42	Z42	X43	Y43	Z43	X44	Y44	Z44	X45	Y45	Z45	X46	Y46	Z46	X47	Y47	Z47

144	1.43	-1684.9	1397.8	-224.79	-1739	1140.8	-256.28	NaN	NaN	NaN	NaN	NaN	NaN	-1567	1352.9	-411.72	-1700.2	1345.1	-32.197	-1762	1315.4	-125.38	-1539.8	887.63	-295.35	-1601.5	889.48	-103.18	-1726.4	898.16	-280.42	-1752	899.55	-211.25	-1597.4	948.05	-361.7	-1692.8	949.9	-80.87	-1566.7	608.07	-332.14	-1573.1	653.01	-345.49	-1595.7	604.68	-349.66	NaN	NaN	NaN	-1623.5	403.3	-294.16	NaN	NaN	NaN	-1560.8	620.37	-46.469	-1552	660.51	-46.766	-1611.4	634.08	-58.387	-1529.5	565.91	-9.581	-1443.8	471.85	-75.985	NaN	NaN	NaN	-1759.9	278.58	-332.27	-1705.4	289.2	-306.09	-1739	318.25	-331.21	-1749.5	189.63	-339.84	-1913.9	96.595	-318.14	-1910.5	102.9	-227.63	-1432.2	324.04	-52.635	-1415.5	369.74	-68.006	-1467.4	363.63	-55.5	-1402.6	259.2	-8.5971	-1388.1	78.902	-58.992	-1378.6	95.997	-144.66	-1972.1	98.915	-277.49	-1923.5	73.894	-232.65	-1920.7	69.152	-311.6	-1807.4	36.781	-262.27	-1818.8	28.057	-310.57	-1437.4	61.398	-101.16	-1373.4	61.18	-139.98	-1374.4	59.42	-61.487	-1257.7	80.363	-90.65	-1277.8	61.269	-40.919
145	1.44	-1670.6	1394.5	-223.24	-1724.6	1137.4	-255.34	NaN	NaN	NaN	-1548.1	1147.2	-201.35	-1553.4	1349.7	-410.79	-1684.3	1341	-30.659	-1747.1	1312	-123.21	-1522.8	884.13	-293.18	-1587.3	887.68	-100.57	-1709.2	894.43	-279.31	-1735.2	896.24	-210.26	-1580.5	944.78	-360.16	-1678	946.96	-79.961	-1554.9	603.7	-329.52	-1559.9	649.4	-343.52	-1583.7	601.24	-347.81	NaN	NaN	NaN	-1616.4	400.68	-292.46	NaN	NaN	NaN	-1545.6	617.59	-45.462	-1536.8	657.89	-45.943	-1596.1	631.54	-56.774	-1514.2	562.89	-9.204	-1428.9	468.88	-76.553	NaN	NaN	NaN	-1754.9	278.27	-331.37	-1700.1	287.9	-304.49	-1733.4	317.59	-330.18	-1745.6	189.07	-339.02	-1911.5	98.573	-318.65	-1908.5	104.42	-228.18	-1412.9	321.27	-53.707	-1398	367.52	-68.56	-1449.2	358.89	-56.824	-1381.1	256.66	-10.338	-1362.8	75.924	-60.239	-1349	96.377	-148.23	-1970.1	102.25	-278.27	-1922.5	76.246	-233.18	-1919	71.405	-312.08	-1806.9	36.946	-262.07	-1818.1	28.235	-310.42	-1406.8	58.77	-105.76	-1342.5	61.64	-143.92	-1345.1	57.145	-65.013	-1228.1	84.373	-93.488	-1247.7	63.34	-44.447
146	1.45	-1656.2	1391.2	-221.61	-1709.2	1133.9	-254.44	NaN	NaN	NaN	-1532.9	1144.5	-199.45	-1540	1347.1	-409.96	-1668.6	1337.2	-29.109	-1732.1	1308.4	-121.08	-1504.7	880.58	-291.46	-1572.1	885.2	-98.116	-1691.4	891.29	-278.43	-1717.8	893.56	-209.45	-1562.2	941.39	-358.44	-1661.2	943.94	-78.247	-1542	599.83	-328.15	-1546.3	645.39	-341.23	-1571.4	598.16	-345.75	NaN	NaN	NaN	-1608.7	397.95	-290.45	NaN	NaN	NaN	-1530	615.03	-44.433	-1521.4	655.92	-44.707	-1581.1	629.57	-55.559	-1499.5	560.2	-8.6273	-1414.3	466.52	-76.49	NaN	NaN	NaN	-1748.7	277.62	-330.3	-1693.5	286.98	-304.1	-1727.2	317.05	-329.31	-1741.1	188.66	-338.13	-1909	101.32	-319.34	-1906.9	107.29	-228.55	-1394.9	318.18	-55.272	-1381.6	365.37	-68.934	-1432.2	354.97	-58.032	-1361.8	253.9	-12.444	-1336.5	74.21	-65.182	-1322.6	96.984	-152.17	-1967.7	106.01	-279.45	-1920.9	78.678	-234.01	-1917.1	74.376	-313.01	-1806	36.937	-261.9	-1817.1	28.536	-310.31	-1379.9	56.986	-111.86	-1315.1	62.526	-148.95	-1318.5	56.8	-70.284	-1201.9	87.172	-96.309	-1221.2	64.659	-48.515
147	1.46	-1641.9	1388.2	-219.93	-1693	1130.5	-253.5	NaN	NaN	NaN	-1517.7	1141.8	-197.54	-1526.5	1344.9	-409.22	-1653	1333.6	-27.515	-1717	1304.8	-119.1	-1486.8	876.58	-288.93	-1554.6	884.01	-96.017	-1673.3	888.92	-277.53	-1700	891.6	-208.66	-1543.5	938.19	-356.56	-1644.2	941.4	-76.652	-1529.1	596.09	-326.32	-1532.5	641.48	-338.97	-1558.7	594.96	-343.64	NaN	NaN	NaN	-1600.3	395.58	-288.55	NaN	NaN	NaN	-1514.9	613.17	-43.382	-1505.7	653.65	-42.805	-1565.7	628.17	-54.8	-1485.8	557.39	-8.0331	-1399.7	464.32	-76.103	NaN	NaN	NaN	-1741.8	277.11	-329.52	-1687.4	285.21	-302.13	-1719.3	315.89	-328.31	-1736.2	188.65	-337.27	-1905.6	104.21	-320.24	-1904.6	110.35	-229.36	-1378.7	315.52	-57.118	-1365.8	362.96	-69.794	-1416.2	351.56	-59.973	-1345.1	250.84	-14.948	-1314.2	72.738	-70.849	-1299.6	97.68	-157.26	-1964.7	110.45	-280.71	-1918.9	81.833	-234.96	-1914.3	77.206	-313.71	-1805.3	37.133	-261.76	-1816	29.056	-310.29	-1356.9	55.61	-118.71	-1291.5	62.746	-153.13	-1296	55.865	-75.869	-1179.6	88.675	-98.952	-1199.6	64.429	-52.036
148	1.47	-1627.4	1385.4	-218.15	-1676.1	1127.1	-252.53	NaN	NaN	NaN	-1500.3	1140.6	-196.68	-1513.1	1343.2	-408.45	-1637.4	1330.2	-25.939	-1701.7	1301.1	-117.17	-1468.7	872.55	-286.05	-1537.2	882.73	-93.288	-1654.6	887.05	-276.48	-1681.8	890.25	-207.67	-1523.6	934.6	-354.26	-1626.9	939.35	-75.032	-1516.8	592.54	-323.08	-1518.3	637.89	-336.73	-1545.4	591.57	-341.28	NaN	NaN	NaN	-1591.3	393.29	-286.73	NaN	NaN	NaN	-1499.9	611.8	-42.571	-1489.4	653.04	-39.171	-1549.8	627.09	-54.288	-1472.2	554.15	-7.6896	-1385.2	462.29	-75.712	NaN	NaN	NaN	-1734.2	276.99	-328.79	-1680.1	284.8	-300.96	-1711.2	315.58	-327.52	-1730.5	188.7	-336.22	-1902.1	107.84	-321.1	-1901.3	113.73	-229.97	-1363.5	312.73	-59.501	-1350.8	360.76	-70.897	-1401.2	348.74	-62.622	-1330.7	247.37	-17.783	-1292.3	73.504	-78.893	-1280.5	97.592	-162.07	-1961	115.47	-281.76	-1916.2	85.314	-235.82	-1911.1	80.94	-314.4	-1804.1	37.215	-261.5	-1814.5	29.298	-309.62	-1338.2	54.154	-125.66	-1272.1	62.758	-159.4	-1279.2	54.365	-85.918	-1161.6	87.813	-101.89	-1182.3	62.832	-55.789
149	1.48	-1612.7	1382.8	-216.25	-1658.6	1123.7	-251.44	-1505.6	1289.5	-194.86	-1483.1	1139.7	-194.69	-1499.5	1341.9	-407.69	-1622	1327.2	-24.291	-1686.2	1297.3	-115.28	-1450.3	868.56	-282.97	-1518.5	881.12	-90.903	-1635.8	885.8	-275.16	-1663.1	889.47	-206.39	-1503.9	931.51	-352.15	-1609.2	937.62	-73.137	-1502.9	589.32	-321.23	-1503.9	634.71	-334.65	-1531.9	589	-339.57	NaN	NaN	NaN	-1581.6	391.34	-285.36	NaN	NaN	NaN	-1484.3	610.11	-42.253	-1473.1	652.16	-36.084	-1533.7	626.16	-54.073	-1458.4	550.49	-7.7989	-1369.6	459.66	-75.772	NaN	NaN	NaN	-1726.1	277.73	-328.08	-1672.6	284.63	-299.61	-1702.7	315.96	-326.91	-1724.3	189.59	-335.85	-1897.6	111.76	-321.47	-1897.1	117.51	-230.33	-1349.3	310.07	-62.147	-1336.3	358.55	-72.386	-1387	346.26	-65.908	-1318	243.88	-20.77	-1282	68.263	-82.434	-1265.4	96.155	-166.85	-1956.3	121.09	-282.44	-1912.5	89.386	-236.53	-1907.7	85.343	-314.88	-1802.8	37.281	-261.25	-1813	29.969	-309.55	-1323.7	52.335	-131.83	-1257.2	61.067	-164.59	-1263	50.539	-85.21	-1147.2	84.716	-105.38	-1168.9	58.978	-59.542
150	1.49	-1597.8	1380.4	-214.26	-1640.5	1120.8	-250.22	-1489.8	1287.5	-192.99	-1465.8	1138.7	-192.69	-1485.6	1341	-406.72	-1606.4	1324.3	-22.559	-1670.4	1293.7	-113.46	-1431.8	865.14	-280.14	-1501.5	879.27	-87.783	-1616.8	885.07	-273.46	-1644.1	889.2	-204.64	-1483.9	928.6	-349.89	-1590.7	935.84	-71.173	-1489	586.35	-319.46	-1489.1	631.99	-332.94	-1517.7	586.72	-338.07	NaN	NaN	NaN	-1571.4	390.14	-284.75	NaN	NaN	NaN	-1468.9	608.68	-42.633	-1464.4	646.68	-32.205	-1517.3	624.92	-54.063	-1443.4	546.72	-8.2454	-1355.3	456.97	-75.259	NaN	NaN	NaN	-1718.2	279.4	-327.75	-1663.7	285.18	-299.82	-1693.9	316.98	-326.47	-1717.8	191.08	-335.82	-1892.8	116.58	-321.43	-1892	121.76	-230.41	-1336.2	307.39	-64.707	-1323.3	356.42	-74.011	-1373.8	344.31	-68.694	-1306.7	240.16	-23.777	-1272.1	66.028	-88.858	-1254.3	93.262	-171.49	-1951.5	127.57	-282.56	-1908.5	94.414	-236.59	-1903.4	89.914	-315	-1801.1	37.299	-260.91	-1811.3	30.592	-309.44	-1313.2	49.85	-137.09	-1246.6	57.999	-169.66	-1254.7	47.687	-96.382	-1136.5	79.348	-109.79	-1158.5	53.406	-64.182
151	1.5	-1582.6	1378.2	-212.1	-1621.9	1118.1	-248.82	-1474.1	1286.8	-190.33	-1448	1137.7	-190.53	-1471.5	1340.5	-405.61	-1590.8	1321.9	-20.705	-1654.3	1290.2	-111.65	-1413.1	862.01	-277.53	-1478.2	879.06	-86.955	-1597.3	884.79	-271.35	-1624.6	889.24	-202.5	-1463.8	926.18	-347.71	-1571.8	934.31	-69.001	-1474.4	584.13	-318.93	-1474	629.92	-331.58	-1503.5	585.27	-337.2	NaN	NaN	NaN	-1560.6	389.19	-284.89	NaN	NaN	NaN	-1452.9	606.68	-42.885	-1448.2	643.86	-31.359	-1500.6	623.09	-54.388	-1431.3	545.21	-10.089	-1340.2	454.26	-75.852	NaN	NaN	NaN	-1709.6	281.63	-327.69	-1655.1	285.94	-299.66	-1684.4	319.09	-326.25	-1710.9	193.29	-336.5	-1887.2	121.32	-321.26	-1886.1	126.42	-230.39	-1324.1	304.35	-67.187	-1309.9	353.1	-76.128	-1360.8	342.08	-71.294	-1296.5	236.1	-26.692	-1263.3	62.257	-91.701	-1247	87.723	-175.66	-1945.1	134.72	-282.32	-1903.5	99.516	-236.57	-1898.4	94.778	-314.79	-1798.9	37.201	-260.73	-1809.5	31.286	-309.15	-1307	47.559	-139.85	-1240.6	52.752	-173.82	-1248.4	44.204	-99.359	-1128.9	71.642	-115.56	-1151.2	46.145	-69.637
152	1.51	-1567.5	1376.3	-209.87	-1602.8	1115.6	-247.01	-1456.8	1287	-189.09	-1429.6	1137.8	-188.37	-1456.9	1340.2	-404.2	-1574.8	1319.6	-18.657	-1637.9	1287	-109.67	-1393.8	859.5	-275.21	-1460.1	877.26	-83.803	-1578	885.15	-269.14	-1605.8	889.91	-200.14	-1443	924.12	-345.39	-1551.7	932.71	-66.283	-1460	582.9	-318.53	-1459	628.19	-330.43	-1489	583.89	-336.42	NaN	NaN	NaN	-1549.6	388.85	-285.8	NaN	NaN	NaN	-1436	602.74	-43.224	-1432.5	640.84	-30.735	-1484.7	621.48	-54.733	-1416	541.7	-11.758	-1325.5	452.13	-78.045	NaN	NaN	NaN	-1700.6	284.26	-328.15	-1646.3	286.85	-299.84	-1674.5	321.14	-326.58	-1703.7	196.23	-338.03	-1880.8	126.21	-321.25	-1878.9	131	-230.39	-1312.5	302.24	-70.034	-1296.4	349.83	-78.195	-1346.2	344.16	-73.197	-1286.8	232.95	-29.89	-1254.9	63.128	-92.998	-1243.4	84.806	-177.25	-1937.8	141.28	-282.05	-1897.6	105.25	-236.36	-1893	100.31	-314.72	-1796.3	36.829	-260.64	-1807.5	31.703	-308.78	-1305	49.438	-138.76	-1239.7	50.65	-175.18	-1249.2	37.816	-98.709	-1124.6	60.709	-122.02	-1146.7	37.424	-74.96
153	1.52	-1552.5	1374.9	-207.55	-1583.4	1113.8	-245.13	-1440.2	1286.6	-186.91	-1410.9	1138.3	-186.45	-1441.9	1340.2	-402.64	-1558.6	1317.7	-16.391	-1621.4	1284.1	-107.44	-1375	857.14	-272.83	-1440	875.5	-81.837	-1558.9	886.19	-266.75	-1587.2	891.66	-197.49	-1423.4	923.12	-343.53	-1531.3	931.95	-62.911	-1446.1	581.44	-318.09	-1444.6	626.87	-329.36	-1475.2	583.37	-335.9	NaN	NaN	NaN	-1538.2	388.8	-287.1	NaN	NaN	NaN	-1420	600.25	-44.202	-1416.8	638.14	-30.488	-1468	620	-56.629	-1403.7	535.59	-16.734	-1306.8	453.22	-79.332	NaN	NaN	NaN	-1690.8	287.03	-328.87	-1634.9	289.21	-302.64	-1664.6	323.96	-327.21	-1695.6	199.19	-339.82	-1873.4	131.53	-321.12	-1870.7	136.12	-230.65	-1297.6	305.64	-71.365	-1279.3	352.36	-79.72	-1331.6	346.24	-75.099	-1274.8	235.79	-30.313	-1257	61.852	-93.277	-1243.6	84.55	-178.15	-1929.8	149.23	-281.79	-1889.4	109.42	-237.47	-1886.3	105.9	-314.36	-1794.4	36.61	-259.89	-1805.5	32.367	-308.76	-1304.3	50.609	-137.89	-1240.2	49.816	-176.24	-1247.9	37.709	-99.31	-1123.6	56.862	-126.37	-1144.4	34	-78.745
154	1.53	-1537.1	1374.2	-205.06	-1563.8	1112.8	-243.5	-1423.6	1287.6	-184.74	-1392.6	1139.8	-183.88	-1426.5	1340.8	-401.06	-1542	1316.2	-13.916	-1604.6	1281.8	-104.94	-1357.1	854.92	-270.63	-1425.8	873.26	-77.785	-1540.3	887.88	-264.59	-1568.5	894.15	-194.91	-1403.1	921.99	-341.68	-1511.3	931.74	-59.555	-1432.1	580.73	-318.81	-1430.4	626.62	-328.64	-1461.7	583.38	-335.49	NaN	NaN	NaN	-1525.9	389.27	-288.63	NaN	NaN	NaN	-1405	602.28	-46.483	-1400.1	637.33	-30.68	-1450.7	622.29	-56.257	-1388.8	536.1	-19.38	-1284.1	458.3	-81.204	NaN	NaN	NaN	-1680.4	290.56	-329.85	-1624.6	291.19	-303.89	-1653.4	326.81	-328.1	-1686.4	202.85	-341.89	-1864.5	137.15	-321.79	-1861.2	141.33	-231.5	-1282.3	310.73	-70.511	-1262.8	356.74	-81.663	-1315.1	353.17	-72.417	-1258.8	241.12	-30.218	-1251.5	62.85	-94.489	-1242.1	84.737	-178.34	-1920.6	157.78	-281.92	-1880.7	115.7	-238.21	-1878.4	112.12	-315.53	-1791.7	36.313	-259.68	-1802.7	32.744	-308.82	-1302.3	52.098	-136.98	-1239.3	49.169	-176.19	-1240.5	39.878	-98.638	-1122.4	53.615	-128.61	-1142.3	31.315	-80.086
